<svg width="178" height="35" fill="none" xmlns="http://www.w3.org/2000/svg"><g filter="url(#filter0_d)" fill="#FFA80B"><path d="M4 .445h11.496c2.504 0 4.377.695 5.618 2.084 1.252 1.39 1.878 3.366 1.878 5.93 0 2.637-.682 4.697-2.045 6.18-1.354 1.485-3.425 2.227-6.214 2.227h-3.786v9.689H4V.445zm6.947 11.131h1.694c1.334 0 2.27-.267 2.81-.8.539-.547.808-1.242.808-2.085 0-.819-.234-1.514-.702-2.083-.468-.57-1.348-.855-2.641-.855h-1.97v5.823zM48.046.445v26.11h-6.504V12.218L33.16 26.555h-6.519V.445h6.52V14.89L41.587.445h6.458zm4.641 0h12.947c2.157 0 3.811.624 4.961 1.87 1.16 1.247 1.74 2.79 1.74 4.63 0 1.544-.411 2.868-1.236 3.973-.55.736-1.353 1.318-2.412 1.745 1.608.451 2.789 1.229 3.542 2.333.763 1.092 1.145 2.47 1.145 4.132 0 1.354-.27 2.57-.81 3.651-.539 1.08-1.276 1.935-2.213 2.565-.58.391-1.455.676-2.626.854-1.557.238-2.59.357-3.099.357H52.687V.445zm6.977 10.241h3.008c1.079 0 1.827-.214 2.244-.641.428-.44.641-1.069.641-1.888 0-.76-.213-1.354-.641-1.781-.417-.427-1.15-.641-2.198-.641h-3.054v4.951zm0 10.259h3.527c1.19 0 2.03-.244 2.519-.73.489-.5.733-1.164.733-1.995 0-.772-.245-1.39-.733-1.853-.478-.475-1.323-.712-2.534-.712h-3.512v5.29zm31.115 1.3H82.9l-1.084 4.31h-7.069L83.16.445h7.542l8.413 26.11h-7.237l-1.1-4.31zm-1.45-5.646l-2.474-9.386-2.458 9.386h4.931zM101.374.445h6.916v9.137h7.557V.445h6.947v26.11h-6.947V15.993h-7.557v10.562h-6.916V.445zm25.145 13.073c0-4.263 1.018-7.581 3.054-9.956C131.608 1.187 134.443 0 138.076 0c3.726 0 6.596 1.17 8.611 3.509 2.015 2.327 3.023 5.592 3.023 9.795 0 3.051-.443 5.557-1.328 7.516-.876 1.947-2.148 3.467-3.817 4.56-1.659 1.08-3.73 1.62-6.214 1.62-2.524 0-4.616-.469-6.275-1.407-1.649-.938-2.987-2.422-4.015-4.453-1.028-2.03-1.542-4.57-1.542-7.622zm6.916.035c0 2.636.417 4.53 1.252 5.682.845 1.152 1.99 1.727 3.435 1.727 1.486 0 2.636-.564 3.451-1.692.814-1.128 1.221-3.152 1.221-6.073 0-2.458-.428-4.25-1.283-5.378-.844-1.14-1.994-1.71-3.45-1.71-1.394 0-2.514.576-3.359 1.727-.844 1.152-1.267 3.058-1.267 5.717zM174 26.555h-6.916V6.857h-5.405v8.032c0 3.301-.152 5.73-.458 7.285-.295 1.543-.997 2.677-2.106 3.401-1.1.724-2.881 1.087-5.344 1.087-.753 0-1.618-.095-2.595-.285v-5.29h1.038c.936 0 1.598-.237 1.984-.712.387-.487.581-1.372.581-2.654V.445H174v26.11z"/></g><defs><filter id="filter0_d" x="0" y="0" width="178" height="35" filterUnits="userSpaceOnUse" color-interpolation-filters="sRGB"><feFlood flood-opacity="0" result="BackgroundImageFix"/><feColorMatrix in="SourceAlpha" values="0 0 0 0 0 0 0 0 0 0 0 0 0 0 0 0 0 0 127 0"/><feOffset dy="4"/><feGaussianBlur stdDeviation="2"/><feColorMatrix values="0 0 0 0 0 0 0 0 0 0 0 0 0 0 0 0 0 0 0.15 0"/><feBlend in2="BackgroundImageFix" result="effect1_dropShadow"/><feBlend in="SourceGraphic" in2="effect1_dropShadow" result="shape"/></filter></defs></svg>